<svg width="21" height="19" viewBox="0 0 21 19" fill="none" xmlns="http://www.w3.org/2000/svg">
<path d="M20.9531 9.14062C20.9531 9.75 20.4844 10.2656 19.8281 10.2656H3.89062L10.125 16.1719C10.5938 16.5938 10.5938 17.3438 10.1719 17.7656C9.75 18.2344 9.04688 18.2344 8.57812 17.8125L0.328125 9.9375C0.09375 9.70312 0 9.42188 0 9.14062C0 8.8125 0.09375 8.53125 0.328125 8.29688L8.57812 0.421875C9.04688 0 9.75 0 10.1719 0.46875C10.5938 0.890625 10.5938 1.64062 10.125 2.0625L3.89062 8.01562H19.8281C20.4844 8.01562 20.9531 8.48438 20.9531 9.14062Z" fill="#333333"/>
</svg>
