<svg width="48" height="48" viewBox="0 0 48 48" fill="none" xmlns="http://www.w3.org/2000/svg">
<rect x="0.5" y="0.5" width="47" height="47" rx="23.5" fill="white"/>
<rect x="0.5" y="0.5" width="47" height="47" rx="23.5" stroke="#DADADA"/>
<path d="M34.9531 24.0469C34.9531 24.6562 34.4844 25.1719 33.8281 25.1719H17.8906L24.125 31.0781C24.5938 31.5 24.5938 32.25 24.1719 32.6719C23.75 33.1406 23.0469 33.1406 22.5781 32.7188L14.3281 24.8438C14.0938 24.6094 14 24.3281 14 24.0469C14 23.7188 14.0938 23.4375 14.3281 23.2031L22.5781 15.3281C23.0469 14.9062 23.75 14.9062 24.1719 15.375C24.5938 15.7969 24.5938 16.5469 24.125 16.9688L17.8906 22.9219H33.8281C34.4844 22.9219 34.9531 23.3906 34.9531 24.0469Z" fill="#333333"/>
</svg>
