<svg width="24" height="24" viewBox="0 0 24 24" fill="none" xmlns="http://www.w3.org/2000/svg">
<g clip-path="url(#clip0_83_1277)">
<path d="M6.5625 0.9375V4.6875" stroke="black" stroke-width="1.5" stroke-miterlimit="10" stroke-linecap="round" stroke-linejoin="round"/>
<path d="M15.9375 0.9375V4.6875" stroke="black" stroke-width="1.5" stroke-miterlimit="10" stroke-linecap="round" stroke-linejoin="round"/>
<path d="M9.22045 21.5625H4.6875C2.61647 21.5625 0.9375 19.8835 0.9375 17.8125V6.5625C0.9375 4.49133 2.61647 2.8125 4.6875 2.8125H17.8125C19.8835 2.8125 21.5625 4.49133 21.5625 6.5625V8.4375H0.9375" stroke="black" stroke-width="1.5" stroke-miterlimit="10" stroke-linecap="round" stroke-linejoin="round"/>
<circle cx="4.6875" cy="12.1875" r="0.9375" fill="black"/>
<circle cx="8.4375" cy="12.1875" r="0.9375" fill="black"/>
<circle cx="4.6875" cy="15.9375" r="0.9375" fill="black"/>
<circle cx="8.4375" cy="15.9375" r="0.9375" fill="black"/>
<path d="M17.4375 23.0625C20.5441 23.0625 23.0625 20.5441 23.0625 17.4375C23.0625 14.3309 20.5441 11.8125 17.4375 11.8125C14.3309 11.8125 11.8125 14.3309 11.8125 17.4375C11.8125 20.5441 14.3309 23.0625 17.4375 23.0625Z" stroke="black" stroke-width="1.5" stroke-miterlimit="10" stroke-linecap="round" stroke-linejoin="round"/>
<path d="M17.4375 17.4375V15.5625" stroke="black" stroke-width="1.5" stroke-miterlimit="10" stroke-linecap="round" stroke-linejoin="round"/>
<path d="M19.3125 17.4375H17.4375" stroke="black" stroke-width="1.5" stroke-miterlimit="10" stroke-linecap="round" stroke-linejoin="round"/>
</g>
<defs>
<clipPath id="clip0_83_1277">
<rect width="24" height="24" fill="white"/>
</clipPath>
</defs>
</svg>
