<svg width="40" height="40" viewBox="0 0 40 40" fill="none" xmlns="http://www.w3.org/2000/svg">
<g clip-path="url(#clip0_83_1224)">
<path d="M25.5 11C25.197 11 24.8803 11.0401 24.5515 11.1012C23.4503 9.81745 21.8201 9 20 9C18.1799 9 16.5497 9.81745 15.4485 11.1011C15.1196 11.0401 14.803 11 14.5 11C11.4673 11 9 13.4673 9 16.5C9 18.5781 10.1719 20.4673 12.0117 21.4014L12.002 28.9575C12.0015 29.5029 12.2134 30.0156 12.5986 30.4014C12.9844 30.7876 13.4966 31 14.042 31H25.96C27.085 31 28 30.085 28 28.96V21.394C29.833 20.4575 31 18.5713 31 16.5C31 13.4673 28.5327 11 25.5 11ZM27 28.96C27 29.5332 26.5332 30.0001 25.9599 30.0001H14.042C13.7641 30.0001 13.5029 29.8916 13.3061 29.6949C13.1098 29.4981 13.0014 29.2369 13.0019 28.9586L13.0045 27H27V28.96ZM27.3095 20.6157C27.2831 20.6265 27.2583 20.6392 27.2348 20.6543C27.1718 20.6934 27.1201 20.7451 27.0815 20.8047C27.0424 20.8637 27.0161 20.9321 27.0053 21.0054C27.0009 21.0332 26.9995 21.061 26.9999 21.0894V26H13.0058L13.0122 21.0961C13.0127 21.0688 13.0112 21.041 13.0073 21.0141C12.9966 20.9384 12.9688 20.8681 12.9282 20.8071C12.8901 20.7499 12.8403 20.7001 12.7798 20.662C12.7549 20.6464 12.7285 20.6327 12.7012 20.6215C11.0601 19.9038 9.99998 18.2876 9.99998 16.5C9.99998 14.0185 12.0186 12 14.5 12C14.597 12 14.6993 12.0117 14.7998 12.0196C14.2939 12.8988 14 13.9148 14 15C14 15.2764 14.2236 15.5 14.5 15.5C14.7764 15.5 15 15.2764 15 15C15 12.2431 17.2431 9.99999 20 9.99999C22.7569 9.99999 25 12.2431 25 15C25 15.2764 25.2236 15.5 25.5 15.5C25.7764 15.5 26 15.2764 26 15C26 13.9148 25.706 12.8989 25.2002 12.0196C25.3006 12.0117 25.403 12 25.5 12C27.9814 12 30 14.0186 30 16.5C30 18.2813 28.9443 19.8955 27.3095 20.6157Z" fill="white" stroke="white" stroke-width="0.5"/>
<path d="M16 18.9995H24" stroke="white" stroke-width="1.5" stroke-miterlimit="10" stroke-linecap="round" stroke-linejoin="round"/>
<path d="M20.1719 15V23" stroke="white" stroke-width="1.5" stroke-miterlimit="10" stroke-linecap="round" stroke-linejoin="round"/>
</g>
<defs>
<clipPath id="clip0_83_1224">
<rect width="24" height="24" fill="white" transform="translate(8 8)"/>
</clipPath>
</defs>
</svg>
