<svg width="24" height="24" viewBox="0 0 24 24" fill="none" xmlns="http://www.w3.org/2000/svg">
<path d="M8.34082 2.32471C10.1102 0.953882 12.8796 0.884877 14.7188 2.17236H14.7197L20.4795 6.20264H20.4805C21.1515 6.6724 21.716 7.38405 22.1123 8.14307C22.5085 8.90206 22.7694 9.77349 22.7695 10.5972V17.3774C22.7694 20.3414 20.3644 22.7473 17.4004 22.7476H16V17.9995C15.9998 15.7905 14.209 13.9995 12 13.9995C9.79095 13.9995 8.00015 15.7905 8 17.9995V22.7476H6.62012C3.65394 22.7476 1.25023 20.3296 1.25 17.3677V10.4673C1.25006 9.69418 1.48787 8.8651 1.84668 8.13623C2.20577 7.40699 2.71802 6.71183 3.32812 6.23584L8.33887 2.32568L8.34082 2.32471Z" fill="#FE734C"/>
</svg>
