<svg width="17" height="19" viewBox="0 0 17 19" fill="none" xmlns="http://www.w3.org/2000/svg">
<path d="M16.291 13.4707C16.5137 13.6934 16.625 13.9902 16.625 14.25C16.5879 14.8809 16.1426 15.4375 15.4004 15.4375H1.1875C0.482422 15.4375 0 14.8809 0 14.25C0 13.9902 0.0742188 13.6934 0.296875 13.4707C1.00195 12.6914 2.375 11.541 2.375 7.71875C2.375 4.86133 4.37891 2.56055 7.125 1.9668V1.1875C7.125 0.556641 7.64453 0 8.3125 0C8.94336 0 9.5 0.556641 9.5 1.1875V1.9668C12.209 2.56055 14.2129 4.86133 14.2129 7.71875C14.2129 11.541 15.5859 12.6914 16.291 13.4707ZM2.48633 13.6562H14.1016C13.3223 12.6172 12.4688 10.9102 12.4688 7.75586V7.71875C12.4688 5.45508 10.5762 3.5625 8.3125 3.5625C6.01172 3.5625 4.15625 5.45508 4.15625 7.71875V7.75586C4.15625 10.9102 3.26562 12.6172 2.48633 13.6562ZM8.3125 19C6.97656 19 5.9375 17.9609 5.9375 16.625H10.6875C10.6875 17.9609 9.61133 19 8.3125 19Z" fill="#333333"/>
</svg>
