<svg width="20" height="20" viewBox="0 0 20 20" fill="none" xmlns="http://www.w3.org/2000/svg">
<path d="M17.1821 9.47063C17.3845 9.07105 17.498 8.62403 17.498 8.15312C17.498 6.46142 16.0345 5.08154 14.2397 5.08154C13.5447 5.08154 12.8998 5.28843 12.3699 5.64022" stroke="#333333" stroke-width="1.5" stroke-linecap="round" stroke-linejoin="round"/>
<path d="M6.6002 5.92643C6.4751 5.77481 6.37128 5.60303 6.28763 5.40846C5.75808 4.17759 4.35842 3.58531 3.13912 4.0846C1.91983 4.5839 1.33763 5.98767 1.8231 7.23647C2.00161 7.69506 2.01804 8.14245 1.87389 8.61298C1.77456 8.93751 1.72676 9.27361 1.73647 9.61045" stroke="#333333" stroke-width="1.5" stroke-linecap="round" stroke-linejoin="round"/>
<path d="M3.10407 3.97977C3.08465 3.88566 3.05627 3.79342 3.02005 3.70454C2.77021 3.09433 2.16486 2.70632 1.5061 2.73433" stroke="#333333" stroke-width="1.5" stroke-linecap="round" stroke-linejoin="round"/>
<path d="M5.69318 9.559C5.64949 9.34726 5.62671 9.12879 5.62671 8.90547C5.62671 8.11527 5.91239 7.38518 6.39638 6.79402C6.74219 6.37128 6.91322 5.90485 6.92293 5.35888C6.94945 3.87182 8.13775 2.67456 9.60015 2.67456C11.0626 2.67456 12.2509 3.87182 12.2774 5.35888C12.2871 5.90485 12.4581 6.37166 12.8039 6.79402C13.2875 7.38556 13.5736 8.11564 13.5736 8.90547C13.5736 9.10639 13.5553 9.30356 13.5194 9.49551" stroke="#333333" stroke-width="1.5" stroke-linecap="round" stroke-linejoin="round"/>
<path d="M9.59225 2.55172C9.57283 2.44678 9.56274 2.34035 9.56274 2.23354C9.56274 1.50159 10.0217 0.848438 10.71 0.600098" stroke="#333333" stroke-width="1.5" stroke-linecap="round" stroke-linejoin="round"/>
<path d="M18.6001 9.6333H0.600098V14.1146H18.6001V9.6333Z" stroke="#333333" stroke-width="1.5" stroke-linecap="round" stroke-linejoin="round"/>
<path d="M16.322 11.874H16.3594" stroke="#333333" stroke-width="1.5" stroke-linecap="round" stroke-linejoin="round"/>
<path d="M2.87816 11.874H2.84082" stroke="#333333" stroke-width="1.5" stroke-linecap="round" stroke-linejoin="round"/>
<path d="M0.600098 14.1187H18.6001V16.2099C18.6001 17.5301 17.5302 18.6 16.2101 18.6H2.99014C1.67001 18.6 0.600098 17.5301 0.600098 16.2099V14.1187Z" stroke="#333333" stroke-width="1.5" stroke-linecap="round" stroke-linejoin="round"/>
<path d="M2.87816 16.3594H2.84082" stroke="#333333" stroke-width="1.5" stroke-linecap="round" stroke-linejoin="round"/>
<path d="M16.3594 16.3594H16.322" stroke="#333333" stroke-width="1.5" stroke-linecap="round" stroke-linejoin="round"/>
<path d="M15.124 5.07032C15.158 4.96912 15.2013 4.87127 15.2532 4.77791C15.45 4.42501 15.7637 4.15165 16.1402 4.00488" stroke="#333333" stroke-width="1.5" stroke-linecap="round" stroke-linejoin="round"/>
</svg>
